<?xml version="1.0" encoding="utf-8"?>
<!-- Svg Vector Icons : http://www.onlinewebfonts.com/icon -->
<!DOCTYPE svg PUBLIC "-//W3C//DTD SVG 1.1//EN" "http://www.w3.org/Graphics/SVG/1.1/DTD/svg11.dtd">
<svg version="1.1" xmlns="http://www.w3.org/2000/svg" xmlns:xlink="http://www.w3.org/1999/xlink" x="0px" y="0px" viewBox="0 0 1000 1000" enable-background="new 0 0 1000 1000" xml:space="preserve">
<metadata> Svg Vector Icons : http://www.onlinewebfonts.com/icon </metadata>
<g><path d="M485.6,452.8"/><path d="M508.2,990c-59.1,0-107.1-48-107.1-107.1c0-59.1,48-107.1,107.1-107.1c59.2,0,107.1,47.9,107.1,107.1C615.3,942,567.4,990,508.2,990z M592.4,673.4v19.3c0,0-160.6,0-176.6,0v-19.3c0-54.5,8-124.5,71.3-185.3c63.3-60.8,142.4-111.1,142.4-187c0-84-58.3-128.4-131.8-128.4c-122.5,0-130.5,127-133.5,155H192.6C197.1,195.2,253.1,10,498.8,10c212.9,0,308.6,142.6,308.6,276.3C807.4,499.2,592.4,536.1,592.4,673.4z"/></g>
</svg>