<?xml version="1.0" encoding="utf-8"?>
<!-- Svg Vector Icons : http://www.onlinewebfonts.com/icon -->
<!DOCTYPE svg PUBLIC "-//W3C//DTD SVG 1.1//EN" "http://www.w3.org/Graphics/SVG/1.1/DTD/svg11.dtd">
<svg version="1.1" xmlns="http://www.w3.org/2000/svg" xmlns:xlink="http://www.w3.org/1999/xlink" x="0px" y="0px" viewBox="0 0 1000 1000" enable-background="new 0 0 1000 1000" xml:space="preserve">
<metadata> Svg Vector Icons : http://www.onlinewebfonts.com/icon </metadata>
<g><g><path d="M815.8,574.2c-13.1-12.9-42-19.7-86.1-20.3c-29.8-0.3-65.7,2.3-103.5,7.6c-16.9-9.8-34.3-20.4-48-33.2c-36.8-34.4-67.5-82.1-86.7-134.6c1.2-4.9,2.3-9.2,3.3-13.6c0,0,20.7-117.8,15.2-157.6c-0.8-5.5-1.2-7-2.7-11.3l-1.8-4.6c-5.6-13-16.7-26.8-34-26l-10.2-0.3l-0.3,0c-19.3,0-35.1,9.9-39.2,24.7c-12.6,46.4,0.4,115.7,23.9,205.5l-6,14.6c-16.8,41-37.9,82.4-56.5,118.8l-2.4,4.7c-19.6,38.3-37.3,70.8-53.5,98.4l-16.6,8.8c-1.2,0.6-29.7,15.7-36.4,19.8c-56.7,33.9-94.3,72.3-100.5,102.8c-2,9.7-0.5,22.2,9.6,28l16.1,8.1c7,3.5,14.3,5.3,21.9,5.3c40.4,0,87.3-50.3,151.9-163c74.6-24.3,159.5-44.5,233.9-55.6c56.7,31.9,126.5,54.1,170.5,54.1c7.8,0,14.6-0.7,20-2.2c8.4-2.2,15.6-7.1,19.9-13.6c8.5-12.9,10.3-30.6,8-48.7C824.8,585.3,820.5,578.7,815.8,574.2z M212.6,789.1c7.4-20.1,36.5-60,79.6-95.3c2.7-2.2,9.4-8.5,15.5-14.3C262.6,751.4,232.4,780.1,212.6,789.1z M467.9,201.1c13,0,20.4,32.7,21,63.4c0.6,30.7-6.6,52.2-15.5,68.1c-7.4-23.6-10.9-60.8-10.9-85.1C462.5,247.6,461.9,201.1,467.9,201.1z M391.7,620.1c9-16.2,18.5-33.3,28.1-51.4c23.4-44.3,38.2-79,49.3-107.5c21.9,39.9,49.2,73.8,81.3,101c4,3.4,8.2,6.8,12.7,10.2C497.8,585.3,441.4,601,391.7,620.1z M803.3,616.4c-4,2.5-15.4,3.9-22.7,3.9c-23.6,0-52.9-10.8-93.9-28.4c15.8-1.2,30.2-1.8,43.2-1.8c23.7,0,30.7-0.1,53.9,5.8C807,601.9,807.3,613.9,803.3,616.4z M874.6,200.9L737.9,64.1C708.1,34.4,649.3,10,607.2,10H147.8c-42.1,0-76.6,34.5-76.6,76.6v826.9c0,42.1,34.5,76.6,76.6,76.6h704.4c42.1,0,76.6-34.5,76.6-76.6V331.6C928.8,289.5,904.4,230.6,874.6,200.9z M831.3,244.2c3,3,6,6.7,8.9,10.8H683.8V98.6c4.2,2.9,7.8,5.9,10.8,8.9L831.3,244.2z M867.5,913.4c0,8.3-7,15.3-15.3,15.3H147.8c-8.3,0-15.3-7-15.3-15.3V86.6c0-8.3,7-15.3,15.3-15.3h459.4c4.6,0,9.8,0.6,15.3,1.6v243.4h243.4c1,5.5,1.6,10.7,1.6,15.3V913.4z"/></g><g></g><g></g><g></g><g></g><g></g><g></g><g></g><g></g><g></g><g></g><g></g><g></g><g></g><g></g><g></g></g>
</svg>